<svg width="289" height="90" viewBox="0 0 289 90" fill="none" xmlns="http://www.w3.org/2000/svg">
<g clip-path="url(#clip0_4_207)">
<path d="M37.1636 73.89C57.6885 73.89 74.3272 57.3492 74.3272 36.945C74.3272 16.5408 57.6885 0 37.1636 0C16.6387 0 0 16.5408 0 36.945C0 57.3492 16.6387 73.89 37.1636 73.89Z" fill="#FFA552"/>
<path fill-rule="evenodd" clip-rule="evenodd" d="M7.45081 88.29L36.9378 37.08L66.3797 88.29C64.1671 85.905 60.961 84.42 57.4388 84.42C53.1489 84.42 49.3558 86.625 47.1883 90C45.0208 86.67 41.2277 84.42 36.9378 84.42C32.648 84.42 28.8549 86.625 26.6874 90C24.5199 86.67 20.7267 84.42 16.4369 84.42C12.8696 84.42 9.70862 85.905 7.45081 88.29Z" fill="#FECDA1"/>
<path d="M48.2721 56.835L36.9379 37.08L25.6036 56.79H48.2721V56.835Z" fill="white"/>
<path d="M94.9635 31.9945H107.562L110.497 39.4195H119.212L102.053 0.0444946H101.602L84.4421 39.4195H91.8478L94.9635 31.9945ZM101.421 16.5145L105.079 25.7395H97.5826L101.421 16.5145Z" fill="#FFA552"/>
<path d="M158.498 39.42H165.994V0H165.904L146.126 27.225L126.844 0H126.799V39.42H134.024V22.5L145.99 38.925H146.08L158.498 21.375V39.42Z" fill="#FFA552"/>
<path d="M96.544 57.375C97.4923 56.745 98.7566 56.385 100.427 56.385C102.866 56.385 105.756 57.285 109.052 59.13L111.897 53.415C110.091 52.245 108.239 51.345 106.343 50.76C104.446 50.13 102.098 49.77 99.2534 49.77C95.686 49.95 92.796 51.03 90.6285 53.01C88.5062 54.99 87.4224 57.645 87.4224 60.885C87.4224 63.135 87.9191 64.98 88.9577 66.465C90.0415 67.95 91.3059 69.075 92.7509 69.84C94.1959 70.65 96.0021 71.46 98.1696 72.315C101.872 73.755 103.724 75.465 103.724 77.4C103.724 78.93 103.137 80.01 101.963 80.685C100.789 81.315 99.434 81.675 97.8084 81.675C96.4537 81.675 94.9635 81.36 93.2476 80.73C91.5768 80.1 90.0415 79.335 88.732 78.345L85.4355 84.15C87.3773 85.5 89.4545 86.535 91.7123 87.255C93.9701 87.885 96.2279 88.245 98.4857 88.245C101.195 88.245 103.543 87.75 105.53 86.805C107.472 85.815 108.962 84.51 109.955 82.845C110.994 81.18 111.491 79.335 111.491 77.4C111.491 75.15 111.039 73.26 110.181 71.775C109.368 70.29 108.285 69.165 107.02 68.31C105.756 67.455 104.221 66.69 102.414 66.06C100.202 65.25 98.4405 64.395 97.0859 63.495C95.7763 62.55 95.1441 61.515 95.1441 60.3C95.1893 59.04 95.6409 58.05 96.544 57.375Z" fill="#FFA552"/>
<path d="M118.354 57.195H127.25V87.84H134.746V57.195H144.003V49.995H118.354V57.195Z" fill="#FFA552"/>
<path d="M175.974 73.845C175.974 75.06 175.613 76.185 174.89 77.31C174.213 78.39 173.219 79.29 172 79.965C170.781 80.64 169.381 81 167.936 81C166.536 81 165.272 80.64 164.053 79.965C162.833 79.29 161.885 78.39 161.163 77.31C160.44 76.23 160.079 75.06 160.079 73.845V49.95H152.583V73.98C152.583 76.68 153.26 79.155 154.615 81.36C156.015 83.52 157.866 85.23 160.214 86.445C162.562 87.66 165.136 88.245 167.981 88.245C170.826 88.245 173.4 87.66 175.748 86.445C178.141 85.23 179.993 83.52 181.393 81.36C182.792 79.155 183.47 76.725 183.47 73.98V49.95H176.064V73.845H175.974Z" fill="#FFA552"/>
<path d="M216.931 52.83C213.815 50.94 209.796 49.995 204.919 49.995H193.54V87.885H206.816C210.293 87.885 213.499 87.165 216.389 85.68C219.324 84.15 221.627 82.035 223.388 79.245C225.104 76.455 225.962 73.26 225.962 69.615C225.962 66.24 225.239 63.045 223.794 60.075C222.349 57.06 220.092 54.675 216.931 52.83ZM214.763 77.67C212.505 79.65 209.39 80.64 205.506 80.64H201.081V57.15H207.177C208.667 57.15 210.247 57.51 211.873 58.185C213.544 58.86 215.034 60.12 216.253 61.875C217.518 63.675 218.15 66.06 218.15 69.075C218.195 72.81 217.066 75.69 214.763 77.67Z" fill="#FFA552"/>
<path d="M241.586 49.995H234.09V87.885H241.586V49.995Z" fill="#FFA552"/>
<path d="M286.291 59.355C284.53 56.385 282.136 54 279.156 52.245C276.176 50.445 272.97 49.59 269.492 49.59C266.015 49.59 262.764 50.49 259.784 52.245C256.804 54 254.455 56.34 252.694 59.355C250.978 62.325 250.12 65.565 250.12 68.985C250.12 72.495 250.978 75.69 252.694 78.66C254.455 81.63 256.804 83.97 259.784 85.725C262.764 87.435 265.97 88.29 269.492 88.29C272.97 88.29 276.176 87.435 279.156 85.725C282.136 83.97 284.53 81.63 286.291 78.66C288.097 75.69 289 72.495 289 68.985C289 65.52 288.097 62.325 286.291 59.355ZM279.743 75.105C278.75 76.905 277.35 78.39 275.589 79.47C273.827 80.55 271.886 81.045 269.763 81.045C267.551 81.045 265.564 80.505 263.712 79.47C261.906 78.39 260.506 76.905 259.423 75.06C258.384 73.215 257.887 71.19 257.887 68.985C257.887 66.735 258.384 64.665 259.423 62.82C260.461 60.975 261.861 59.49 263.622 58.455C265.428 57.375 267.415 56.79 269.583 56.79C271.75 56.79 273.737 57.33 275.498 58.455C277.305 59.535 278.704 60.975 279.743 62.82C280.782 64.665 281.278 66.735 281.278 68.985C281.233 71.19 280.736 73.26 279.743 75.105Z" fill="#FFA552"/>
</g>
<defs>
<clipPath id="clip0_4_207">
<rect width="289" height="90" fill="white"/>
</clipPath>
</defs>
</svg>
