<svg width="44" height="41" viewBox="0 0 44 41" fill="none" xmlns="http://www.w3.org/2000/svg">
<path fill-rule="evenodd" clip-rule="evenodd" d="M21.6596 3.63991C27.3924 3.63991 28.0709 3.66011 30.3362 3.75707C32.4296 3.84594 33.5655 4.17519 34.3234 4.45192C35.3261 4.81753 36.0411 5.25585 36.7926 5.96283C37.5441 6.6698 38.01 7.34244 38.3987 8.28575C38.6928 8.99676 39.0428 10.0673 39.1373 12.0368C39.2403 14.1658 39.2618 14.8061 39.2618 20.1993C39.2618 25.5925 39.2403 26.2308 39.1373 28.3618C39.0428 30.3312 38.6928 31.3998 38.3987 32.1128C38.01 33.0561 37.5441 33.7288 36.7926 34.4357C36.0411 35.1427 35.3261 35.581 34.3234 35.9467C33.5676 36.2234 32.4296 36.5526 30.3362 36.6415C28.0731 36.7385 27.3924 36.7587 21.6596 36.7587C15.9267 36.7587 15.2461 36.7385 12.983 36.6415C10.8895 36.5526 9.75367 36.2234 8.99573 35.9467C7.99302 35.581 7.27802 35.1427 6.52652 34.4357C5.77502 33.7288 5.3091 33.0561 4.92046 32.1128C4.62631 31.4018 4.27632 30.3312 4.18185 28.3618C4.07878 26.2328 4.05731 25.5925 4.05731 20.1993C4.05731 14.8061 4.07878 14.1678 4.18185 12.0368C4.27632 10.0673 4.62631 8.99878 4.92046 8.28575C5.3091 7.34244 5.77502 6.6698 6.52652 5.96283C7.27802 5.25585 7.99302 4.81753 8.99573 4.45192C9.75152 4.17519 10.8895 3.84594 12.983 3.75707C15.2482 3.66011 15.9267 3.63991 21.6596 3.63991ZM21.6596 0C15.8279 0 15.0979 0.0242391 12.8069 0.121196C10.5223 0.220172 8.96138 0.56154 7.5958 1.06046C6.18298 1.57756 4.98702 2.26636 3.79322 3.38944C2.59941 4.51252 1.86508 5.63964 1.31756 6.96673C0.787213 8.25141 0.424347 9.7199 0.319137 11.8691C0.213927 14.0244 0.190308 14.7111 0.190308 20.1973C0.190308 25.6834 0.216075 26.3702 0.319137 28.5254C0.424347 30.6746 0.787213 32.1431 1.31756 33.4278C1.86722 34.7569 2.59941 35.882 3.79322 37.0051C4.98702 38.1282 6.18513 38.819 7.5958 39.3341C8.96138 39.833 10.5223 40.1744 12.8069 40.2733C15.0979 40.3723 15.8279 40.3945 21.6596 40.3945C27.4912 40.3945 28.2212 40.3723 30.5122 40.2733C32.7968 40.1744 34.3577 39.833 35.7233 39.3341C37.1362 38.817 38.3321 38.1282 39.5259 37.0051C40.7197 35.882 41.4541 34.7549 42.0016 33.4278C42.5319 32.1431 42.8948 30.6746 43 28.5254C43.1052 26.3702 43.1288 25.6834 43.1288 20.1973C43.1288 14.7111 43.1031 14.0244 43 11.8691C42.8948 9.7199 42.5319 8.25141 42.0016 6.96673C41.4519 5.63762 40.7197 4.51252 39.5259 3.38944C38.3321 2.26636 37.134 1.57554 35.7233 1.06046C34.3577 0.56154 32.7968 0.220172 30.5122 0.121196C28.2212 0.0242391 27.4912 0 21.6596 0ZM21.6595 9.82703C15.5703 9.82703 10.634 14.4708 10.634 20.1993C10.634 25.9278 15.5703 30.5717 21.6595 30.5717C27.7488 30.5717 32.6851 25.9278 32.6851 20.1993C32.6851 14.4708 27.7488 9.82703 21.6595 9.82703ZM21.6595 26.9317C17.7067 26.9317 14.5031 23.918 14.5031 20.1993C14.5031 16.4807 17.7067 13.4669 21.6595 13.4669C25.6124 13.4669 28.8159 16.4807 28.8159 20.1993C28.8159 23.918 25.6124 26.9317 21.6595 26.9317ZM35.6976 9.41681C35.6976 10.7555 34.544 11.8407 33.121 11.8407C31.698 11.8407 30.5445 10.7555 30.5445 9.41681C30.5445 8.07813 31.698 6.99292 33.121 6.99292C34.544 6.99292 35.6976 8.07813 35.6976 9.41681Z" fill="#FFA552"/>
</svg>
