<svg width="44" height="33" viewBox="0 0 44 33" fill="none" xmlns="http://www.w3.org/2000/svg">
<path d="M13.8008 32.8632C30.0036 32.8632 38.8661 20.2339 38.8661 9.28296C38.8661 8.92344 38.8575 8.56596 38.8403 8.21251C40.56 7.04309 42.0564 5.58283 43.2351 3.92061C41.6571 4.58105 39.9589 5.02539 38.1769 5.22534C39.9954 4.19933 41.393 2.57547 42.05 0.640583C40.3475 1.58985 38.4625 2.28059 36.4572 2.65222C34.8492 1.04049 32.5606 0.034668 30.0272 0.034668C25.1623 0.034668 21.2162 3.74691 21.2162 8.32157C21.2162 8.97192 21.2935 9.60409 21.4438 10.212C14.1228 9.86665 7.63052 6.56845 3.28514 1.5535C2.52728 2.77744 2.09146 4.20135 2.09146 5.71815C2.09146 8.59423 3.64583 11.131 6.01174 12.6175C4.56686 12.5751 3.21 12.2014 2.02275 11.5814C2.02061 11.6157 2.0206 11.6501 2.0206 11.6864C2.0206 15.6996 5.05851 19.0523 9.08828 19.8117C8.34759 20.0016 7.57041 20.1026 6.76531 20.1026C6.19852 20.1026 5.64676 20.0501 5.11003 19.9531C6.23072 23.2453 9.48331 25.6427 13.3392 25.7093C10.3228 27.933 6.52485 29.2559 2.39846 29.2559C1.68783 29.2559 0.985793 29.2176 0.296631 29.1408C4.19544 31.4918 8.8242 32.8632 13.8008 32.8632Z" fill="#FFA552"/>
</svg>
